<svg width="1920" height="400" viewBox="0 0 1920 400" xmlns="http://www.w3.org/2000/svg">
  <defs>
    <linearGradient id="grassGradient" x1="0%" y1="0%" x2="0%" y2="100%">
      <stop offset="0%" style="stop-color:#4CAF50;stop-opacity:1" />
      <stop offset="100%" style="stop-color:#2E7D32;stop-opacity:1" />
    </linearGradient>
  </defs>
  
  <!-- Grass blades -->
  <g fill="url(#grassGradient)">
    <!-- First row -->
    <path d="M0,400 C50,300 50,300 100,400 L0,400" />
    <path d="M100,400 C150,250 150,250 200,400 L100,400" />
    <path d="M200,400 C250,300 250,300 300,400 L200,400" />
    <path d="M300,400 C350,280 350,280 400,400 L300,400" />
    <path d="M400,400 C450,320 450,320 500,400 L400,400" />
    
    <!-- Repeat pattern -->
    <path d="M500,400 C550,300 550,300 600,400 L500,400" />
    <path d="M600,400 C650,250 650,250 700,400 L600,400" />
    <path d="M700,400 C750,300 750,300 800,400 L700,400" />
    <path d="M800,400 C850,280 850,280 900,400 L800,400" />
    <path d="M900,400 C950,320 950,320 1000,400 L900,400" />
    
    <!-- More repetitions to cover width -->
    <path d="M1000,400 C1050,300 1050,300 1100,400 L1000,400" />
    <path d="M1100,400 C1150,250 1150,250 1200,400 L1100,400" />
    <path d="M1200,400 C1250,300 1250,300 1300,400 L1200,400" />
    <path d="M1300,400 C1350,280 1350,280 1400,400 L1300,400" />
    <path d="M1400,400 C1450,320 1450,320 1500,400 L1400,400" />
    
    <!-- Final section -->
    <path d="M1500,400 C1550,300 1550,300 1600,400 L1500,400" />
    <path d="M1600,400 C1650,250 1650,250 1700,400 L1600,400" />
    <path d="M1700,400 C1750,300 1750,300 1800,400 L1700,400" />
    <path d="M1800,400 C1850,280 1850,280 1900,400 L1800,400" />
    <path d="M1900,400 C1950,320 1950,320 2000,400 L1900,400" />
  </g>
</svg>